<svg version="1.1" id="Layer_1" xmlns="http://www.w3.org/2000/svg" xmlns:xlink="http://www.w3.org/1999/xlink" x="0px" y="0px"
	 width="100%" viewBox="0 0 512 512" enable-background="new 0 0 512 512" xml:space="preserve">
<path fill="#000000" opacity="1.000000" stroke="none" 
	d="
M238.000000,513.000000 
	C158.685898,513.000000 79.871796,513.000000 1.028848,513.000000 
	C1.028848,342.394196 1.028848,171.788406 1.028848,1.091303 
	C171.564117,1.091303 342.128326,1.091303 512.846252,1.091303 
	C512.846252,171.666565 512.846252,342.333252 512.846252,513.000000 
	C421.455048,513.000000 329.977509,513.000000 238.000000,513.000000 
M114.815002,299.248993 
	C112.254333,294.874786 109.693665,290.500610 106.989388,285.881104 
	C105.485573,286.926788 103.947594,287.891174 102.523720,289.001801 
	C73.752983,311.442902 73.966095,354.786987 102.735252,377.226166 
	C107.057869,380.597717 110.250870,380.966156 114.028038,376.957550 
	C116.292046,374.554840 118.889549,372.466339 121.932869,369.960663 
	C136.943512,355.628632 147.150269,338.460602 152.845657,318.100739 
	C137.246262,317.644196 124.916611,311.222595 114.815002,299.248993 
M177.170410,274.727753 
	C175.764694,282.754364 173.961319,290.734741 173.022018,298.815582 
	C168.925186,334.061157 154.153793,363.660278 127.179489,386.965973 
	C126.662735,387.412415 126.293839,388.030029 125.784874,388.655060 
	C241.742737,388.655060 357.281006,388.655060 472.962860,388.655060 
	C472.962860,379.659149 473.091705,371.005585 472.939667,362.356903 
	C472.397247,331.499115 465.434784,302.082916 449.561584,275.619171 
	C408.811279,207.680588 348.481506,176.147400 269.364929,182.250778 
	C242.854980,184.295868 219.961746,195.172562 202.952393,216.534073 
	C189.477341,233.456955 182.390259,253.224854 177.170410,274.727753 
M180.049789,222.609650 
	C200.568344,186.693985 232.605026,169.329788 272.903015,165.680740 
	C273.155365,152.611969 277.024750,141.308304 284.268036,131.298721 
	C277.605042,126.025154 268.882324,123.916168 260.855316,125.405716 
	C244.786453,128.387589 234.159576,141.309662 234.299988,158.013962 
	C234.336990,162.415329 233.522720,166.339188 228.947998,167.537933 
	C226.416092,168.201370 223.373428,167.505386 220.683762,166.887665 
	C185.641800,158.839661 154.777527,189.735992 162.952789,224.749985 
	C165.395340,235.211182 163.230576,237.989395 152.446274,238.234024 
	C135.142319,238.626511 121.225906,252.403122 120.984161,269.380035 
	C120.737190,286.723602 134.020264,301.063477 150.931808,302.012543 
	C155.072495,302.244904 156.586517,301.145020 157.173553,296.741943 
	C160.601898,271.026917 166.819672,246.101471 180.049789,222.609650 
M97.725197,232.226669 
	C96.773796,233.159668 95.803833,234.074554 94.873688,235.028290 
	C59.918427,270.870117 41.880684,313.802917 41.032040,363.877319 
	C40.837814,375.337769 47.376545,385.786194 57.822685,387.593628 
	C68.567909,389.452881 79.724007,388.937531 91.901085,389.518524 
	C90.438133,387.835602 90.155914,387.423309 89.791801,387.104553 
	C51.646221,353.710449 58.876114,293.843170 102.465500,269.974915 
	C103.818077,269.234283 104.909920,267.033325 105.139046,265.377014 
	C107.494392,248.350266 115.871323,235.463318 131.226273,227.565750 
	C135.735977,225.246246 140.794708,223.994202 146.350159,221.981857 
	C146.350159,214.783798 146.350159,207.025009 146.350159,198.845825 
	C128.598785,207.117599 112.592186,218.194519 97.725197,232.226669 
M384.789612,171.661041 
	C373.401550,163.439392 357.656128,165.392776 353.384064,175.640961 
	C401.181946,192.652603 437.813385,223.196304 463.904480,267.957306 
	C464.664337,266.666962 464.999146,265.859375 465.535828,265.221619 
	C479.841156,248.221130 472.813690,222.315201 451.780792,214.867905 
	C447.850830,213.476395 444.683228,211.783752 443.135345,207.457748 
	C436.408203,188.656387 421.286652,180.974182 401.999298,186.318024 
	C396.406342,187.867615 393.496124,186.272949 390.874969,180.912048 
	C389.363831,177.821442 387.208405,175.045837 384.789612,171.661041 
M290.830994,164.993149 
	C306.163391,166.481720 321.495758,167.970291 337.278412,169.502579 
	C343.057220,158.761398 352.988525,152.561722 365.839355,150.400436 
	C365.418121,149.214325 365.206146,148.419464 364.864563,147.684845 
	C357.908478,132.724991 341.186646,123.329773 324.798035,125.156868 
	C307.608856,127.073235 293.343903,139.763229 290.041229,156.358627 
	C289.495575,159.100479 289.935760,162.038513 290.830994,164.993149 
z"/>
<path fill="#FCBB60" opacity="1.000000" stroke="none" 
	d="
M177.273758,274.322906 
	C182.390259,253.224854 189.477341,233.456955 202.952393,216.534073 
	C219.961746,195.172562 242.854980,184.295868 269.364929,182.250778 
	C348.481506,176.147400 408.811279,207.680588 449.561584,275.619171 
	C465.434784,302.082916 472.397247,331.499115 472.939667,362.356903 
	C473.091705,371.005585 472.962860,379.659149 472.962860,388.655060 
	C357.281006,388.655060 241.742737,388.655060 125.784874,388.655060 
	C126.293839,388.030029 126.662735,387.412415 127.179489,386.965973 
	C154.153793,363.660278 168.925186,334.061157 173.022018,298.815582 
	C173.961319,290.734741 175.764694,282.754364 177.273758,274.322906 
M333.143829,340.946320 
	C337.968903,336.461700 338.288666,331.189362 333.843719,327.858215 
	C330.471558,325.331085 326.931641,325.404968 323.798889,328.150879 
	C320.889343,330.701141 319.984100,334.035431 321.896454,337.604156 
	C324.225922,341.951385 327.864502,343.054291 333.143829,340.946320 
M273.061768,223.206161 
	C275.751678,230.434265 282.831299,232.482788 287.101990,227.217789 
	C289.439148,224.336441 290.117340,220.707458 287.625549,218.082626 
	C285.722321,216.077805 282.308258,214.351639 279.658752,214.475723 
	C275.449554,214.672867 273.108063,217.966248 273.061768,223.206161 
M239.024109,285.898193 
	C246.168411,286.108032 250.573883,281.481812 248.586243,275.749817 
	C247.302109,272.046661 244.349854,269.449432 240.693268,270.354431 
	C237.933670,271.037415 234.658676,273.524048 233.536819,276.059204 
	C231.692612,280.226746 234.107224,283.700195 239.024109,285.898193 
M335.335571,273.333588 
	C330.602356,269.162750 326.044464,269.041290 322.839233,273.131470 
	C320.246765,276.439728 320.324371,279.914062 322.879944,283.201965 
	C325.311829,286.330719 329.945526,287.122437 333.203003,284.850189 
	C337.200592,282.061676 338.050262,278.327362 335.335571,273.333588 
M387.149750,272.710876 
	C383.394653,278.910858 385.670776,285.289429 391.953949,285.997986 
	C395.632996,286.412933 398.443848,284.949493 400.121948,281.579773 
	C401.823395,278.163208 401.169769,274.976685 398.511841,272.466858 
	C395.126617,269.270325 391.383514,269.323975 387.149750,272.710876 
M424.202057,345.428558 
	C425.819641,341.962158 425.245911,338.572296 422.338318,336.447083 
	C420.425079,335.048676 416.896881,333.797913 415.192078,334.659088 
	C412.631226,335.952698 410.124268,338.868652 409.258881,341.618622 
	C408.180817,345.044250 410.503662,348.079102 413.949493,349.441864 
	C418.043701,351.061035 421.421967,349.802032 424.202057,345.428558 
M253.680237,343.711731 
	C249.963318,341.229706 246.372421,341.543335 243.288422,344.650238 
	C240.698090,347.259827 239.705490,350.938995 242.138779,353.673676 
	C244.056213,355.828613 247.569550,357.849243 250.291275,357.746063 
	C256.757599,357.500916 258.706146,350.173706 253.680237,343.711731 
z"/>
<path fill="#68BF1F" opacity="1.000000" stroke="none" 
	d="
M179.882355,222.935333 
	C166.819672,246.101471 160.601898,271.026917 157.173553,296.741943 
	C156.586517,301.145020 155.072495,302.244904 150.931808,302.012543 
	C134.020264,301.063477 120.737190,286.723602 120.984161,269.380035 
	C121.225906,252.403122 135.142319,238.626511 152.446274,238.234024 
	C163.230576,237.989395 165.395340,235.211182 162.952789,224.749985 
	C154.777527,189.735992 185.641800,158.839661 220.683762,166.887665 
	C223.373428,167.505386 226.416092,168.201370 228.947998,167.537933 
	C233.522720,166.339188 234.336990,162.415329 234.299988,158.013962 
	C234.159576,141.309662 244.786453,128.387589 260.855316,125.405716 
	C268.882324,123.916168 277.605042,126.025154 284.268036,131.298721 
	C277.024750,141.308304 273.155365,152.611969 272.903015,165.680740 
	C232.605026,169.329788 200.568344,186.693985 179.882355,222.935333 
z"/>
<path fill="#F79328" opacity="1.000000" stroke="none" 
	d="
M97.978882,231.979095 
	C112.592186,218.194519 128.598785,207.117599 146.350159,198.845825 
	C146.350159,207.025009 146.350159,214.783798 146.350159,221.981857 
	C140.794708,223.994202 135.735977,225.246246 131.226273,227.565750 
	C115.871323,235.463318 107.494392,248.350266 105.139046,265.377014 
	C104.909920,267.033325 103.818077,269.234283 102.465500,269.974915 
	C58.876114,293.843170 51.646221,353.710449 89.791801,387.104553 
	C90.155914,387.423309 90.438133,387.835602 91.901085,389.518524 
	C79.724007,388.937531 68.567909,389.452881 57.822685,387.593628 
	C47.376545,385.786194 40.837814,375.337769 41.032040,363.877319 
	C41.880684,313.802917 59.918427,270.870117 94.873688,235.028290 
	C95.803833,234.074554 96.773796,233.159668 97.978882,231.979095 
z"/>
<path fill="#A8CF1F" opacity="1.000000" stroke="none" 
	d="
M385.066315,171.894745 
	C387.208405,175.045837 389.363831,177.821442 390.874969,180.912048 
	C393.496124,186.272949 396.406342,187.867615 401.999298,186.318024 
	C421.286652,180.974182 436.408203,188.656387 443.135345,207.457748 
	C444.683228,211.783752 447.850830,213.476395 451.780792,214.867905 
	C472.813690,222.315201 479.841156,248.221130 465.535828,265.221619 
	C464.999146,265.859375 464.664337,266.666962 463.904480,267.957306 
	C437.813385,223.196304 401.181946,192.652603 353.384064,175.640961 
	C357.656128,165.392776 373.401550,163.439392 385.066315,171.894745 
z"/>
<path fill="#F92D0A" opacity="1.000000" stroke="none" 
	d="
M115.011604,299.893463 
	C124.916611,311.222595 137.246262,317.644196 152.845657,318.100739 
	C147.150269,338.460602 136.943512,355.628632 121.363846,369.853210 
	C119.363449,368.914032 117.933823,368.079315 116.500443,367.251099 
	C91.379227,352.736084 90.535240,314.564117 115.011604,299.893463 
z"/>
<path fill="#F82D0A" opacity="1.000000" stroke="none" 
	d="
M290.375671,164.939514 
	C289.935760,162.038513 289.495575,159.100479 290.041229,156.358627 
	C293.343903,139.763229 307.608856,127.073235 324.798035,125.156868 
	C341.186646,123.329773 357.908478,132.724991 364.864563,147.684845 
	C365.206146,148.419464 365.418121,149.214325 365.839355,150.400436 
	C352.988525,152.561722 343.057220,158.761398 337.278412,169.502579 
	C321.495758,167.970291 306.163391,166.481720 290.375671,164.939514 
z"/>
<path fill="#FC6331" opacity="1.000000" stroke="none" 
	d="
M114.913300,299.571228 
	C90.535240,314.564117 91.379227,352.736084 116.500443,367.251099 
	C117.933823,368.079315 119.363449,368.914032 121.065979,369.991150 
	C118.889549,372.466339 116.292046,374.554840 114.028038,376.957550 
	C110.250870,380.966156 107.057869,380.597717 102.735252,377.226166 
	C73.966095,354.786987 73.752983,311.442902 102.523720,289.001801 
	C103.947594,287.891174 105.485573,286.926788 106.989388,285.881104 
	C109.693665,290.500610 112.254333,294.874786 114.913300,299.571228 
z"/>
<path fill="#090603" opacity="1.000000" stroke="none" 
	d="
M332.782593,341.116608 
	C327.864502,343.054291 324.225922,341.951385 321.896454,337.604156 
	C319.984100,334.035431 320.889343,330.701141 323.798889,328.150879 
	C326.931641,325.404968 330.471558,325.331085 333.843719,327.858215 
	C338.288666,331.189362 337.968903,336.461700 332.782593,341.116608 
z"/>
<path fill="#080603" opacity="1.000000" stroke="none" 
	d="
M273.039001,222.808670 
	C273.108063,217.966248 275.449554,214.672867 279.658752,214.475723 
	C282.308258,214.351639 285.722321,216.077805 287.625549,218.082626 
	C290.117340,220.707458 289.439148,224.336441 287.101990,227.217789 
	C282.831299,232.482788 275.751678,230.434265 273.039001,222.808670 
z"/>
<path fill="#080603" opacity="1.000000" stroke="none" 
	d="
M238.644028,285.775879 
	C234.107224,283.700195 231.692612,280.226746 233.536819,276.059204 
	C234.658676,273.524048 237.933670,271.037415 240.693268,270.354431 
	C244.349854,269.449432 247.302109,272.046661 248.586243,275.749817 
	C250.573883,281.481812 246.168411,286.108032 238.644028,285.775879 
z"/>
<path fill="#080603" opacity="1.000000" stroke="none" 
	d="
M335.567627,273.642639 
	C338.050262,278.327362 337.200592,282.061676 333.203003,284.850189 
	C329.945526,287.122437 325.311829,286.330719 322.879944,283.201965 
	C320.324371,279.914062 320.246765,276.439728 322.839233,273.131470 
	C326.044464,269.041290 330.602356,269.162750 335.567627,273.642639 
z"/>
<path fill="#080603" opacity="1.000000" stroke="none" 
	d="
M387.422852,272.440063 
	C391.383514,269.323975 395.126617,269.270325 398.511841,272.466858 
	C401.169769,274.976685 401.823395,278.163208 400.121948,281.579773 
	C398.443848,284.949493 395.632996,286.412933 391.953949,285.997986 
	C385.670776,285.289429 383.394653,278.910858 387.422852,272.440063 
z"/>
<path fill="#080603" opacity="1.000000" stroke="none" 
	d="
M424.048004,345.791290 
	C421.421967,349.802032 418.043701,351.061035 413.949493,349.441864 
	C410.503662,348.079102 408.180817,345.044250 409.258881,341.618622 
	C410.124268,338.868652 412.631226,335.952698 415.192078,334.659088 
	C416.896881,333.797913 420.425079,335.048676 422.338318,336.447083 
	C425.245911,338.572296 425.819641,341.962158 424.048004,345.791290 
z"/>
<path fill="#080603" opacity="1.000000" stroke="none" 
	d="
M253.989655,343.943054 
	C258.706146,350.173706 256.757599,357.500916 250.291275,357.746063 
	C247.569550,357.849243 244.056213,355.828613 242.138779,353.673676 
	C239.705490,350.938995 240.698090,347.259827 243.288422,344.650238 
	C246.372421,341.543335 249.963318,341.229706 253.989655,343.943054 
z"/>
</svg>